HIERARCHY
ROOT mixamorig:Hips
{
	OFFSET -0.000008 104.274872 1.554316
	CHANNELS 6 Xposition Yposition Zposition Xrotation Yrotation Zrotation
	JOINT mixamorig:Spine
	{
		OFFSET -0.000005 10.181595 0.131519
		CHANNELS 6 Xposition Yposition Zposition Xrotation Yrotation Zrotation
		JOINT mixamorig:Spine1
		{
			OFFSET -0.000000 9.893959 -1.470707
			CHANNELS 6 Xposition Yposition Zposition Xrotation Yrotation Zrotation
			JOINT mixamorig:Spine2
			{
				OFFSET -0.000000 9.220757 -1.370641
				CHANNELS 6 Xposition Yposition Zposition Xrotation Yrotation Zrotation
				JOINT mixamorig:Neck
				{
					OFFSET 0.000001 16.740417 -2.049036
					CHANNELS 6 Xposition Yposition Zposition Xrotation Yrotation Zrotation
					JOINT mixamorig:Head
					{
						OFFSET 0.000000 9.617874 1.685006
						CHANNELS 6 Xposition Yposition Zposition Xrotation Yrotation Zrotation
						JOINT mixamorig:HeadTop_End
						{
							OFFSET 0.000002 22.037354 7.501101
							CHANNELS 6 Xposition Yposition Zposition Xrotation Yrotation Zrotation
							End Site
							{
								OFFSET 0.000168 2310.654297 -282.823242
							}
						}
					}
				}
				JOINT mixamorig:RightShoulder
				{
					OFFSET -4.569970 11.014908 -2.160885
					CHANNELS 6 Xposition Yposition Zposition Xrotation Yrotation Zrotation
					JOINT mixamorig:RightArm
					{
						OFFSET -10.592851 -0.524811 -2.232101
						CHANNELS 6 Xposition Yposition Zposition Xrotation Yrotation Zrotation
						JOINT mixamorig:RightForeArm
						{
							OFFSET -27.841511 0.000031 -0.000004
							CHANNELS 6 Xposition Yposition Zposition Xrotation Yrotation Zrotation
							JOINT mixamorig:RightHand
							{
								OFFSET -28.328831 -0.000015 0.000015
								CHANNELS 6 Xposition Yposition Zposition Xrotation Yrotation Zrotation
								JOINT mixamorig:RightHandThumb1
								{
									OFFSET -2.464806 -1.573990 2.681852
									CHANNELS 6 Xposition Yposition Zposition Xrotation Yrotation Zrotation
									JOINT mixamorig:RightHandThumb2
									{
										OFFSET -3.215179 -1.872803 1.924282
										CHANNELS 6 Xposition Yposition Zposition Xrotation Yrotation Zrotation
										JOINT mixamorig:RightHandThumb3
										{
											OFFSET -2.654831 -1.527969 1.512609
											CHANNELS 6 Xposition Yposition Zposition Xrotation Yrotation Zrotation
											JOINT mixamorig:RightHandThumb4
											{
												OFFSET -2.018814 -1.152008 1.108052
												CHANNELS 6 Xposition Yposition Zposition Xrotation Yrotation Zrotation
												End Site
												{
													OFFSET -188.809540 -114.533607 132.431396
												}
											}
										}
									}
								}
								JOINT mixamorig:RightHandIndex1
								{
									OFFSET -9.108284 -0.517868 2.259835
									CHANNELS 6 Xposition Yposition Zposition Xrotation Yrotation Zrotation
									JOINT mixamorig:RightHandIndex2
									{
										OFFSET -3.699989 0.000000 0.001215
										CHANNELS 6 Xposition Yposition Zposition Xrotation Yrotation Zrotation
										JOINT mixamorig:RightHandIndex3
										{
											OFFSET -2.850006 0.000031 -0.000522
											CHANNELS 6 Xposition Yposition Zposition Xrotation Yrotation Zrotation
											JOINT mixamorig:RightHandIndex4
											{
												OFFSET -2.772186 -0.000015 -0.000020
												CHANNELS 6 Xposition Yposition Zposition Xrotation Yrotation Zrotation
												End Site
												{
													OFFSET -277.218445 0.000000 -0.050231
												}
											}
										}
									}
								}
								JOINT mixamorig:RightHandMiddle1
								{
									OFFSET -9.532516 -0.000031 -0.000023
									CHANNELS 6 Xposition Yposition Zposition Xrotation Yrotation Zrotation
									JOINT mixamorig:RightHandMiddle2
									{
										OFFSET -3.700005 -0.000015 0.003713
										CHANNELS 6 Xposition Yposition Zposition Xrotation Yrotation Zrotation
										JOINT mixamorig:RightHandMiddle3
										{
											OFFSET -2.949974 0.000015 -0.002054
											CHANNELS 6 Xposition Yposition Zposition Xrotation Yrotation Zrotation
											JOINT mixamorig:RightHandMiddle4
											{
												OFFSET -2.946640 0.000000 -0.000156
												CHANNELS 6 Xposition Yposition Zposition Xrotation Yrotation Zrotation
												End Site
												{
													OFFSET -294.664337 0.000000 -0.113670
												}
											}
										}
									}
								}
								JOINT mixamorig:RightHandRing1
								{
									OFFSET -9.103600 -0.043076 -1.865134
									CHANNELS 6 Xposition Yposition Zposition Xrotation Yrotation Zrotation
									JOINT mixamorig:RightHandRing2
									{
										OFFSET -3.379288 0.000000 -0.001055
										CHANNELS 6 Xposition Yposition Zposition Xrotation Yrotation Zrotation
										JOINT mixamorig:RightHandRing3
										{
											OFFSET -2.889687 -0.000015 0.000379
											CHANNELS 6 Xposition Yposition Zposition Xrotation Yrotation Zrotation
											JOINT mixamorig:RightHandRing4
											{
												OFFSET -2.638809 -0.000015 0.000941
												CHANNELS 6 Xposition Yposition Zposition Xrotation Yrotation Zrotation
												End Site
												{
													OFFSET -263.880371 0.000000 0.516020
												}
											}
										}
									}
								}
								JOINT mixamorig:RightHandPinky1
								{
									OFFSET -8.076683 -0.486710 -3.806280
									CHANNELS 6 Xposition Yposition Zposition Xrotation Yrotation Zrotation
									JOINT mixamorig:RightHandPinky2
									{
										OFFSET -3.600014 -0.000015 -0.003747
										CHANNELS 6 Xposition Yposition Zposition Xrotation Yrotation Zrotation
										JOINT mixamorig:RightHandPinky3
										{
											OFFSET -2.099983 0.000000 -0.005739
											CHANNELS 6 Xposition Yposition Zposition Xrotation Yrotation Zrotation
											JOINT mixamorig:RightHandPinky4
											{
												OFFSET -2.115768 -0.000031 -0.003680
												CHANNELS 6 Xposition Yposition Zposition Xrotation Yrotation Zrotation
												End Site
												{
													OFFSET -211.577087 0.000000 -0.350686
												}
											}
										}
									}
								}
							}
						}
					}
				}
				JOINT mixamorig:LeftShoulder
				{
					OFFSET 4.570447 11.014725 -2.160855
					CHANNELS 6 Xposition Yposition Zposition Xrotation Yrotation Zrotation
					JOINT mixamorig:LeftArm
					{
						OFFSET 10.592371 -0.524597 -2.232119
						CHANNELS 6 Xposition Yposition Zposition Xrotation Yrotation Zrotation
						JOINT mixamorig:LeftForeArm
						{
							OFFSET 27.841532 -0.000031 0.000026
							CHANNELS 6 Xposition Yposition Zposition Xrotation Yrotation Zrotation
							JOINT mixamorig:LeftHand
							{
								OFFSET 28.328846 -0.000061 0.000022
								CHANNELS 6 Xposition Yposition Zposition Xrotation Yrotation Zrotation
								JOINT mixamorig:LeftHandThumb1
								{
									OFFSET 2.466141 -1.576172 2.681732
									CHANNELS 6 Xposition Yposition Zposition Xrotation Yrotation Zrotation
									JOINT mixamorig:LeftHandThumb2
									{
										OFFSET 3.217812 -1.872070 1.916482
										CHANNELS 6 Xposition Yposition Zposition Xrotation Yrotation Zrotation
										JOINT mixamorig:LeftHandThumb3
										{
											OFFSET 2.656029 -1.528778 1.514513
											CHANNELS 6 Xposition Yposition Zposition Xrotation Yrotation Zrotation
											JOINT mixamorig:LeftHandThumb4
											{
												OFFSET 2.020889 -1.154053 1.115139
												CHANNELS 6 Xposition Yposition Zposition Xrotation Yrotation Zrotation
												End Site
												{
													OFFSET 190.885437 -115.081749 130.048782
												}
											}
										}
									}
								}
								JOINT mixamorig:LeftHandIndex1
								{
									OFFSET 9.109314 -0.518021 2.259871
									CHANNELS 6 Xposition Yposition Zposition Xrotation Yrotation Zrotation
									JOINT mixamorig:LeftHandIndex2
									{
										OFFSET 3.699989 0.000000 -0.000322
										CHANNELS 6 Xposition Yposition Zposition Xrotation Yrotation Zrotation
										JOINT mixamorig:LeftHandIndex3
										{
											OFFSET 2.850006 0.000000 0.000352
											CHANNELS 6 Xposition Yposition Zposition Xrotation Yrotation Zrotation
											JOINT mixamorig:LeftHandIndex4
											{
												OFFSET 2.774864 -0.000031 -0.000027
												CHANNELS 6 Xposition Yposition Zposition Xrotation Yrotation Zrotation
												End Site
												{
													OFFSET 277.486267 0.000000 -0.009857
												}
											}
										}
									}
								}
								JOINT mixamorig:LeftHandMiddle1
								{
									OFFSET 9.533394 0.000061 0.000044
									CHANNELS 6 Xposition Yposition Zposition Xrotation Yrotation Zrotation
									JOINT mixamorig:LeftHandMiddle2
									{
										OFFSET 3.699989 -0.000015 -0.000231
										CHANNELS 6 Xposition Yposition Zposition Xrotation Yrotation Zrotation
										JOINT mixamorig:LeftHandMiddle3
										{
											OFFSET 2.949997 -0.000015 -0.000059
											CHANNELS 6 Xposition Yposition Zposition Xrotation Yrotation Zrotation
											JOINT mixamorig:LeftHandMiddle4
											{
												OFFSET 2.952896 0.000031 0.000063
												CHANNELS 6 Xposition Yposition Zposition Xrotation Yrotation Zrotation
												End Site
												{
													OFFSET 295.289337 0.000000 0.022810
												}
											}
										}
									}
								}
								JOINT mixamorig:LeftHandRing1
								{
									OFFSET 9.104523 -0.042999 -1.865074
									CHANNELS 6 Xposition Yposition Zposition Xrotation Yrotation Zrotation
									JOINT mixamorig:LeftHandRing2
									{
										OFFSET 3.150009 -0.000031 0.000043
										CHANNELS 6 Xposition Yposition Zposition Xrotation Yrotation Zrotation
										JOINT mixamorig:LeftHandRing3
										{
											OFFSET 2.949982 -0.000015 0.000040
											CHANNELS 6 Xposition Yposition Zposition Xrotation Yrotation Zrotation
											JOINT mixamorig:LeftHandRing4
											{
												OFFSET 2.644348 0.000000 0.000057
												CHANNELS 6 Xposition Yposition Zposition Xrotation Yrotation Zrotation
												End Site
												{
													OFFSET 264.434631 0.000000 0.012105
												}
											}
										}
									}
								}
								JOINT mixamorig:LeftHandPinky1
								{
									OFFSET 8.077789 -0.486847 -3.806259
									CHANNELS 6 Xposition Yposition Zposition Xrotation Yrotation Zrotation
									JOINT mixamorig:LeftHandPinky2
									{
										OFFSET 3.599953 0.000031 0.014727
										CHANNELS 6 Xposition Yposition Zposition Xrotation Yrotation Zrotation
										JOINT mixamorig:LeftHandPinky3
										{
											OFFSET 2.100021 0.000015 0.007705
											CHANNELS 6 Xposition Yposition Zposition Xrotation Yrotation Zrotation
											JOINT mixamorig:LeftHandPinky4
											{
												OFFSET 2.125504 0.000031 0.007517
												CHANNELS 6 Xposition Yposition Zposition Xrotation Yrotation Zrotation
												End Site
												{
													OFFSET 212.550781 0.000000 0.625752
												}
											}
										}
									}
								}
							}
						}
					}
				}
			}
		}
	}
	JOINT mixamorig:RightUpLeg
	{
		OFFSET -8.207787 -6.751648 -1.599560
		CHANNELS 6 Xposition Yposition Zposition Xrotation Yrotation Zrotation
		JOINT mixamorig:RightLeg
		{
			OFFSET -0.000002 -44.370117 0.345942
			CHANNELS 6 Xposition Yposition Zposition Xrotation Yrotation Zrotation
			JOINT mixamorig:RightFoot
			{
				OFFSET 0.000003 -44.423679 -3.043532
				CHANNELS 6 Xposition Yposition Zposition Xrotation Yrotation Zrotation
				JOINT mixamorig:RightToeBase
				{
					OFFSET -0.000002 -8.728671 10.710558
					CHANNELS 6 Xposition Yposition Zposition Xrotation Yrotation Zrotation
					JOINT mixamorig:RightToe_End
					{
						OFFSET -0.000001 -0.000679 9.278119
						CHANNELS 6 Xposition Yposition Zposition Xrotation Yrotation Zrotation
						End Site
						{
							OFFSET 0.000000 -0.067690 927.812134
						}
					}
				}
			}
		}
	}
	JOINT mixamorig:LeftUpLeg
	{
		OFFSET 8.207793 -6.751686 -1.599556
		CHANNELS 6 Xposition Yposition Zposition Xrotation Yrotation Zrotation
		JOINT mixamorig:LeftLeg
		{
			OFFSET -0.000004 -44.370014 0.346954
			CHANNELS 6 Xposition Yposition Zposition Xrotation Yrotation Zrotation
			JOINT mixamorig:LeftFoot
			{
				OFFSET -0.000001 -44.423672 -3.044401
				CHANNELS 6 Xposition Yposition Zposition Xrotation Yrotation Zrotation
				JOINT mixamorig:LeftToeBase
				{
					OFFSET -0.000002 -8.728669 10.710558
					CHANNELS 6 Xposition Yposition Zposition Xrotation Yrotation Zrotation
					JOINT mixamorig:LeftToe_End
					{
						OFFSET -0.000003 -0.000679 9.278133
						CHANNELS 6 Xposition Yposition Zposition Xrotation Yrotation Zrotation
						End Site
						{
							OFFSET 0.000000 -0.068021 927.813477
						}
					}
				}
			}
		}
	}
}
MOTION
Frames: 3
Frame Time: 0.033333
0.000006 104.270477 1.554256 0.000010 0.000003 -0.000113 -0.000005 10.181587 0.131522 0.000001 -0.000003 0.000084 -0.000000 9.893967 -1.470711 0.000001 0.000000 -0.000000 -0.000000 9.220802 -1.370642 0.000000 -0.000000 -0.000000 0.000001 16.740433 -2.049030 0.000000 -0.000000 -0.000000 0.000000 9.617859 1.685014 0.000000 0.000000 0.000000 0.000002 22.037384 7.501101 0.000000 -0.000000 0.000000 -4.569968 11.014880 -2.160881 0.000008 0.000001 -0.000038 -10.592874 -0.524766 -2.231895 72.370984 30.275783 -22.387644 -27.841528 0.000017 0.000546 -57.706397 107.845613 74.192582 -28.328823 0.000022 0.000029 -0.000325 -0.000045 0.000007 -2.464433 -1.573976 2.682385 -22.211114 -149.909101 38.850338 -3.215218 -1.872496 1.924608 147.258838 34.904121 40.999242 -2.654954 -1.527908 1.513086 152.152026 25.887940 -37.126279 -2.018830 -1.151997 1.108067 -0.000006 0.000002 0.000003 -9.108396 -0.517575 2.260136 102.450666 18.286710 -22.718596 -3.700077 0.000322 0.001522 100.830845 13.673036 -16.472343 -2.850084 0.000377 -0.000234 101.625831 9.497463 -11.635868 -2.772160 -0.000015 -0.000017 -0.000001 0.000000 0.000002 -9.532586 0.000265 0.000257 99.893791 16.009803 -19.161428 -3.700073 0.000347 0.004003 100.307769 9.644807 -11.435168 -2.950035 0.000343 -0.001770 101.862067 9.080016 -11.164767 -2.946616 0.000002 -0.000153 -0.000000 0.000001 -0.000001 -9.103700 -0.042757 -1.864837 100.714896 15.745893 -18.897665 -3.379302 0.000345 -0.000805 99.654885 5.451746 -6.475005 -2.889725 0.000393 0.000655 104.212185 2.859478 -3.728632 -2.638804 0.000013 0.000941 0.000000 0.000002 0.000001 -8.076745 -0.486381 -3.805994 97.387692 15.323646 -17.240384 -3.600031 0.000312 -0.003469 101.578157 4.573554 -5.191748 -2.100008 0.000318 -0.005430 106.200603 2.018221 -2.411136 -2.115772 -0.000039 -0.003674 0.000000 0.000001 -0.000002 4.570446 11.014691 -2.160851 -0.000018 0.000010 -0.000021 10.592413 -0.524469 -2.232360 73.724283 -17.483502 13.153636 27.841833 0.000090 -0.000205 104.278486 -69.960432 83.978781 28.328817 -0.000028 0.000024 0.000027 -0.000089 -0.000000 2.465930 -1.576130 2.681903 -47.312454 164.836726 8.952156 3.217826 -1.871746 1.916375 157.679193 -29.310073 10.559844 2.656098 -1.528636 1.514453 140.235832 -27.796788 44.991347 2.020902 -1.154054 1.115147 -0.000000 0.000003 0.000004 9.109366 -0.517860 2.259748 84.654874 -15.941211 14.523976 3.700046 0.000154 -0.000442 82.238059 -15.825830 13.851181 2.850042 0.000184 0.000216 80.173553 -13.004993 10.958676 2.774895 -0.000014 -0.000027 0.000002 0.000001 -0.000000 9.533451 0.000220 -0.000078 85.858080 -13.614719 12.664401 3.700055 0.000190 -0.000381 87.973397 -13.164740 12.708331 2.950076 0.000162 -0.000183 85.546890 -18.239129 16.897287 2.952865 -0.000030 0.000059 0.000003 0.000000 0.000000 9.104571 -0.042837 -1.865229 85.132550 -12.521176 11.509111 3.150047 0.000205 -0.000101 92.230141 -12.723770 13.226431 2.950037 0.000164 -0.000069 92.614804 -15.813807 16.544417 2.644333 0.000031 0.000059 0.000005 -0.000001 -0.000000 8.077825 -0.486726 -3.806419 72.916839 -13.691901 10.565156 3.600005 0.000178 0.014557 77.743686 -10.935788 9.226699 2.100048 0.000181 0.007553 80.610992 -11.715555 10.356464 2.125522 -0.000016 0.007511 0.000001 0.000001 -0.000001 -8.207786 -6.751667 -1.599560 -0.077001 -0.000003 0.000080 -0.000002 -44.370110 0.345938 0.153719 -0.000000 -0.000000 0.000000 -44.423679 -3.043532 -0.076700 0.000000 -0.000002 -0.000006 -8.728667 10.710559 -0.000009 -0.000000 -0.000000 -0.000001 -0.000679 9.278123 0.000000 -0.000000 -0.000000 8.207792 -6.751710 -1.599556 -0.074518 -0.000003 0.000081 -0.000002 -44.370014 0.346960 0.148822 0.000002 0.000000 -0.000001 -44.423664 -3.044403 -0.074314 0.000000 -0.000002 -0.000004 -8.728671 10.710558 0.000007 -0.000000 -0.000000 0.000000 -0.000680 9.278137 -0.000000 0.000000 -0.000001 
0.000006 104.270477 1.554256 0.000010 0.000003 -0.000113 -0.000005 10.181587 0.131522 0.000001 -0.000003 0.000084 -0.000000 9.893967 -1.470711 0.000001 0.000000 -0.000000 -0.000000 9.220802 -1.370642 0.000000 -0.000000 -0.000000 0.000001 16.740433 -2.049030 0.000000 -0.000000 -0.000000 0.000000 9.617859 1.685014 0.000000 0.000000 0.000000 0.000002 22.037384 7.501101 0.000000 -0.000000 0.000000 -4.569968 11.014880 -2.160881 0.000008 0.000001 -0.000038 -10.592876 -0.524753 -2.231923 73.163907 26.055457 -19.487993 -27.841530 0.000034 0.000554 -56.461550 107.175025 72.100447 -28.328835 0.000020 0.000026 -0.000321 -0.000046 0.000009 -2.464415 -1.573902 2.682347 -33.356574 -150.231746 18.519684 -3.215243 -1.872522 1.924628 149.770926 34.447383 30.322686 -2.654958 -1.527896 1.513081 148.762927 26.728103 -35.707259 -2.018837 -1.152016 1.108049 -0.000005 -0.000000 0.000000 -9.108389 -0.517572 2.260125 99.487511 18.052610 -21.306693 -3.700072 0.000312 0.001507 97.111718 14.094762 -15.913120 -2.850079 0.000375 -0.000267 96.642805 11.011929 -12.357849 -2.772151 0.000002 -0.000019 0.000003 0.000001 -0.000002 -9.532593 0.000272 0.000264 97.038362 17.849468 -20.306533 -3.700070 0.000329 0.003989 98.140768 11.695230 -13.363389 -2.950069 0.000322 -0.001781 101.503305 11.041569 -13.485629 -2.946622 0.000002 -0.000159 0.000001 -0.000001 -0.000001 -9.103707 -0.042752 -1.864843 97.857582 18.166674 -20.739777 -3.379309 0.000342 -0.000780 99.695176 7.430852 -8.823030 -2.889739 0.000354 0.000694 107.718729 4.841704 -6.686969 -2.638816 -0.000001 0.000940 -0.000001 0.000001 -0.000000 -8.076754 -0.486381 -3.805995 93.594041 18.949696 -19.990427 -3.600036 0.000289 -0.003464 101.149316 7.174753 -8.296920 -2.100018 0.000327 -0.005414 106.668861 3.382605 -4.257448 -2.115788 -0.000040 -0.003682 0.000000 -0.000002 -0.000008 4.570446 11.014691 -2.160851 -0.000018 0.000010 -0.000021 10.592392 -0.524479 -2.232342 73.843791 -9.479369 7.130157 27.841833 0.000066 -0.000208 106.846582 -71.071752 87.813133 28.328815 -0.000029 0.000018 0.000022 -0.000089 0.000000 2.466047 -1.576174 2.681910 -32.999366 160.266632 -24.365493 3.217816 -1.871756 1.916386 162.228618 -28.912744 12.672112 2.656103 -1.528679 1.514490 138.870108 -27.804997 55.484478 2.020891 -1.154058 1.115153 -0.000004 0.000005 0.000002 9.109385 -0.517872 2.259719 85.133937 -18.817077 17.295697 3.700045 0.000170 -0.000466 83.759102 -12.365456 11.110454 2.850053 0.000205 0.000195 83.965728 -9.499188 8.550556 2.774873 -0.000030 -0.000035 0.000001 0.000001 -0.000001 9.533472 0.000211 -0.000085 86.753340 -18.099390 17.108423 3.700055 0.000190 -0.000389 88.565383 -10.760250 10.493085 2.950054 0.000186 -0.000209 89.807842 -11.838323 11.801863 2.952865 -0.000032 0.000062 -0.000004 -0.000000 0.000000 9.104597 -0.042853 -1.865211 86.861107 -17.715231 16.786069 3.150053 0.000222 -0.000103 92.424009 -10.752958 11.216749 2.950011 0.000209 -0.000085 94.154909 -10.353883 11.130451 2.644309 0.000046 0.000051 -0.000001 -0.000001 0.000000 8.077864 -0.486742 -3.806433 77.373230 -18.689619 15.499376 3.600007 0.000172 0.014563 80.081420 -14.624354 12.745455 2.100031 0.000185 0.007553 81.854155 -11.827306 10.682563 2.125508 0.000001 0.007517 -0.000001 0.000002 0.000001 -8.207786 -6.751667 -1.599560 -0.077001 -0.000003 0.000080 -0.000002 -44.370110 0.345938 0.153719 -0.000000 -0.000000 0.000000 -44.423679 -3.043532 -0.076700 0.000000 -0.000002 -0.000006 -8.728667 10.710559 -0.000009 -0.000000 -0.000000 -0.000001 -0.000679 9.278123 0.000000 -0.000000 -0.000000 8.207792 -6.751710 -1.599556 -0.074518 -0.000003 0.000081 -0.000002 -44.370014 0.346960 0.148822 0.000002 0.000000 -0.000001 -44.423664 -3.044403 -0.074314 0.000000 -0.000002 -0.000004 -8.728671 10.710558 0.000007 -0.000000 -0.000000 0.000000 -0.000680 9.278137 -0.000000 0.000000 -0.000001 
0.000006 104.270477 1.554256 0.000010 0.000003 -0.000113 -0.000005 10.181587 0.131522 0.000001 -0.000003 0.000084 -0.000000 9.893967 -1.470711 0.000001 0.000000 -0.000000 -0.000000 9.220802 -1.370642 0.000000 -0.000000 -0.000000 0.000001 16.740433 -2.049030 0.000000 -0.000000 -0.000000 0.000000 9.617859 1.685014 0.000000 0.000000 0.000000 0.000002 22.037384 7.501101 0.000000 -0.000000 0.000000 -4.569968 11.014880 -2.160881 0.000008 0.000001 -0.000038 -10.592865 -0.524786 -2.231871 73.334027 38.371043 -29.045936 -27.841530 0.000008 0.000566 -54.613274 104.412747 67.306822 -28.328812 0.000023 0.000031 -0.000321 -0.000041 0.000003 -2.464405 -1.573893 2.682353 -33.176496 -149.781745 18.653274 -3.215252 -1.872576 1.924648 153.493421 33.103198 14.351088 -2.654966 -1.527884 1.513070 146.452056 27.141611 -35.927983 -2.018826 -1.152019 1.108063 -0.000001 -0.000008 -0.000008 -9.108376 -0.517571 2.260148 101.354543 17.727334 -21.614759 -3.700080 0.000318 0.001510 98.083996 13.253617 -15.219938 -2.850093 0.000370 -0.000252 97.395711 9.982424 -11.352389 -2.772172 -0.000014 -0.000024 -0.000001 -0.000003 0.000001 -9.532597 0.000272 0.000282 97.842897 16.809731 -19.404357 -3.700076 0.000336 0.003975 98.425792 10.631275 -12.202229 -2.950028 0.000345 -0.001778 101.078884 10.296350 -12.483562 -2.946615 -0.000001 -0.000156 0.000000 -0.000001 -0.000001 -9.103695 -0.042763 -1.864836 98.458010 17.038107 -19.657804 -3.379308 0.000339 -0.000772 100.442235 7.289011 -8.770088 -2.889740 0.000359 0.000654 107.185803 5.140111 -7.026485 -2.638821 0.000001 0.000939 -0.000000 -0.000003 -0.000001 -8.076738 -0.486381 -3.805992 94.151371 18.227687 -19.410052 -3.600033 0.000299 -0.003477 100.571482 7.375144 -8.452206 -2.100007 0.000326 -0.005428 105.306511 3.825567 -4.731792 -2.115770 -0.000054 -0.003681 -0.000001 -0.000000 -0.000005 4.570446 11.014691 -2.160851 -0.000018 0.000010 -0.000021 10.592418 -0.524467 -2.232371 73.411222 -18.638020 13.949817 27.841831 0.000069 -0.000196 109.453822 -73.558050 93.164921 28.328848 -0.000028 0.000021 0.000022 -0.000090 -0.000000 2.466092 -1.576178 2.681895 -24.483013 158.365162 -40.720628 3.217823 -1.871783 1.916391 162.522302 -27.653467 18.164724 2.656107 -1.528690 1.514484 138.694887 -27.879024 55.098173 2.020898 -1.154071 1.115150 -0.000002 0.000003 0.000006 9.109381 -0.517873 2.259743 85.799218 -20.237203 18.819912 3.700051 0.000150 -0.000451 84.104668 -12.874555 11.637984 2.850041 0.000182 0.000202 84.153169 -9.806821 8.856720 2.774884 -0.000014 -0.000026 0.000001 -0.000001 0.000001 9.533471 0.000197 -0.000100 86.265931 -19.242957 18.040083 3.700025 0.000181 -0.000381 88.864791 -10.821023 10.607370 2.950072 0.000183 -0.000213 90.493566 -11.516127 11.618007 2.952877 -0.000031 0.000063 0.000006 0.000000 -0.000002 9.104593 -0.042857 -1.865209 86.332833 -19.030770 17.871639 3.150047 0.000216 -0.000110 92.475659 -11.234430 11.729153 2.950026 0.000193 -0.000070 94.628808 -10.187119 11.042020 2.644331 0.000044 0.000058 0.000003 0.000000 0.000001 8.077847 -0.486732 -3.806392 77.238218 -19.906103 16.449947 3.599996 0.000187 0.014563 80.162679 -15.713870 13.690326 2.100060 0.000190 0.007560 83.229291 -12.272427 11.341088 2.125511 -0.000001 0.007519 -0.000000 -0.000000 0.000000 -8.207786 -6.751667 -1.599560 -0.077001 -0.000003 0.000080 -0.000002 -44.370110 0.345938 0.153719 -0.000000 -0.000000 0.000000 -44.423679 -3.043532 -0.076700 0.000000 -0.000002 -0.000006 -8.728667 10.710559 -0.000009 -0.000000 -0.000000 -0.000001 -0.000679 9.278123 0.000000 -0.000000 -0.000000 8.207792 -6.751710 -1.599556 -0.074518 -0.000003 0.000081 -0.000002 -44.370014 0.346960 0.148822 0.000002 0.000000 -0.000001 -44.423664 -3.044403 -0.074314 0.000000 -0.000002 -0.000004 -8.728671 10.710558 0.000007 -0.000000 -0.000000 0.000000 -0.000680 9.278137 -0.000000 0.000000 -0.000001 
